<svg width="31" height="30" viewBox="0 0 31 30" fill="none" xmlns="http://www.w3.org/2000/svg">
<path fill-rule="evenodd" clip-rule="evenodd" d="M6.75 16.1928C6.76549 17.5498 7.31944 18.845 8.28996 19.7935C9.26048 20.742 10.5681 21.266 11.925 21.2503H12.625L14.7 23.4153C14.9114 23.6295 15.1997 23.75 15.5006 23.75C15.8015 23.75 16.0899 23.6295 16.3012 23.4153L18.375 21.2503H19.075C20.4319 21.266 21.7395 20.742 22.71 19.7935C23.6806 18.845 24.2345 17.5498 24.25 16.1928V10.0553C24.2164 7.23062 21.8997 4.96771 19.075 5.00035H11.925C9.10026 4.96771 6.78363 7.23062 6.75 10.0553V16.1928Z" stroke="white" stroke-width="1.5" stroke-linecap="round" stroke-linejoin="round"/>
<path d="M11.75 10.5004C11.3358 10.5004 11 10.8362 11 11.2504C11 11.6646 11.3358 12.0004 11.75 12.0004V10.5004ZM19.25 12.0004C19.6642 12.0004 20 11.6646 20 11.2504C20 10.8362 19.6642 10.5004 19.25 10.5004V12.0004ZM11.75 14.2504C11.3358 14.2504 11 14.5862 11 15.0004C11 15.4146 11.3358 15.7504 11.75 15.7504V14.2504ZM19.25 15.7504C19.6642 15.7504 20 15.4146 20 15.0004C20 14.5862 19.6642 14.2504 19.25 14.2504V15.7504ZM11.75 12.0004H19.25V10.5004H11.75V12.0004ZM11.75 15.7504H19.25V14.2504H11.75V15.7504Z" fill="white"/>
</svg>
