<svg width="30" height="30" viewBox="0 0 30 30" fill="none" xmlns="http://www.w3.org/2000/svg">
<path fill-rule="evenodd" clip-rule="evenodd" d="M22.5088 24.8162V7.5425C22.5145 6.87382 22.2543 6.23027 21.7854 5.75346C21.3166 5.27664 20.6775 5.00561 20.0088 5H10.0088C9.34013 5.00561 8.70106 5.27664 8.23222 5.75346C7.76337 6.23027 7.50315 6.87382 7.50881 7.5425V24.8162C7.44938 25.315 7.69426 25.8009 8.13052 26.0498C8.56677 26.2988 9.10966 26.2624 9.50881 25.9575L14.2588 21.8563C14.687 21.4698 15.3381 21.4698 15.7663 21.8563L20.5088 25.9588C20.9081 26.2639 21.4514 26.3002 21.8878 26.0509C22.3242 25.8016 22.5688 25.3152 22.5088 24.8162Z" stroke="white" stroke-width="1.5" stroke-linecap="round" stroke-linejoin="round"/>
</svg>
