<svg width="34" height="34" viewBox="0 0 34 34" fill="none" xmlns="http://www.w3.org/2000/svg">
<path d="M26.7849 9.12335L15.9404 19.9679C16.2619 20.4284 16.5354 20.9256 16.7549 21.4526L19.4608 27.9679L26.7849 9.12194V9.12335ZM14.0321 18.0597L24.8781 7.21369L6.0322 14.5379L12.5474 17.2451C13.0704 17.462 13.5682 17.7351 14.0321 18.0597V18.0597ZM30.4909 6.92185L21.9527 28.8887C21.4144 30.277 19.8603 30.9896 18.4833 30.481C18.1479 30.3571 17.8417 30.1651 17.584 29.9171C17.3263 29.6692 17.1227 29.3707 16.9859 29.0403L14.28 22.525C13.7535 21.2554 12.7447 20.2465 11.475 19.72L4.95836 17.0142C3.60686 16.4518 2.9892 14.8892 3.58136 13.5207C3.72656 13.1863 3.93651 12.884 4.1991 12.6311C4.46169 12.3782 4.77174 12.1798 5.11136 12.0474L27.0782 3.50627C27.5555 3.31392 28.0789 3.26618 28.5831 3.36901C29.0873 3.47183 29.5502 3.72067 29.9141 4.08456C30.278 4.44844 30.5268 4.91131 30.6296 5.41554C30.7325 5.91978 30.6847 6.44312 30.4924 6.92044L30.4909 6.92185Z" fill="white"/>
</svg>
