<svg width="30" height="30" viewBox="0 0 30 30" fill="none" xmlns="http://www.w3.org/2000/svg">
<path d="M8.25083 13.8796C8.42205 14.2567 8.86661 14.4237 9.24378 14.2524C9.62095 14.0812 9.7879 13.6367 9.61667 13.2595L8.25083 13.8796ZM6.4525 11.982L6.44259 12.732C6.44747 12.732 6.45235 12.732 6.45722 12.732L6.4525 11.982ZM3.75 14.6133L3 14.6031V14.6133H3.75ZM3.75 19.8783L2.99991 19.8783L3.00009 19.8902L3.75 19.8783ZM6.4525 22.5033L6.45841 21.7533C6.45313 21.7533 6.44785 21.7533 6.44256 21.7533L6.4525 22.5033ZM9.73433 20.9256C9.86887 20.5339 9.66036 20.1072 9.2686 19.9727C8.87685 19.8381 8.4502 20.0467 8.31566 20.4384L9.73433 20.9256ZM9.61896 13.2646C9.45055 12.8862 9.00725 12.7159 8.62882 12.8843C8.25038 13.0527 8.08013 13.496 8.24854 13.8745L9.61896 13.2646ZM9.155 14.6133L8.405 14.6126V14.6133H9.155ZM9.155 19.8783L8.40498 19.8783L8.40502 19.8835L9.155 19.8783ZM8.31659 20.4556C8.18879 20.8496 8.40461 21.2726 8.79861 21.4004C9.19262 21.5282 9.61562 21.3124 9.74341 20.9184L8.31659 20.4556ZM8.26231 13.2354C8.07775 13.6062 8.22875 14.0564 8.59958 14.241C8.97041 14.4255 9.42063 14.2745 9.60519 13.9037L8.26231 13.2354ZM9.81875 12.4833L9.37594 11.8779C9.36914 11.8829 9.36242 11.888 9.35579 11.8932L9.81875 12.4833ZM10.2912 11.8133L11.0101 12.0272C11.0128 12.0182 11.0153 12.0092 11.0176 12.0002L10.2912 11.8133ZM11.6425 6.56327L10.9224 6.35371C10.9202 6.36121 10.9181 6.36876 10.9162 6.37633L11.6425 6.56327ZM14.2912 5.07577L14.0954 5.79974C14.1011 5.80129 14.1068 5.80277 14.1126 5.80418L14.2912 5.07577ZM15.5962 6.04309L14.9513 6.42583L14.9513 6.42583L15.5962 6.04309ZM15.82 7.65202L16.5431 7.85125L16.5449 7.84424L15.82 7.65202ZM15.0475 10.4558L14.3244 10.2565L14.3214 10.2679L15.0475 10.4558ZM15.2411 11.3765L14.6522 11.8408L14.6522 11.8408L15.2411 11.3765ZM16.0912 11.7795V11.0294L16.078 11.0296L16.0912 11.7795ZM20.5063 11.7795L20.5063 12.5296L20.5166 12.5294L20.5063 11.7795ZM22.7823 12.6862L23.3055 12.1488L23.3055 12.1488L22.7823 12.6862ZM23.75 14.937L24.5001 14.937L24.4999 14.9271L23.75 14.937ZM23.75 19.1458L24.5 19.156V19.1458H23.75ZM22.7819 21.3958L22.2589 20.8583L22.2589 20.8583L22.7819 21.3958ZM20.5063 22.302L20.5166 21.552H20.5063V22.302ZM11.8575 22.302L11.8575 21.552L11.8537 21.552L11.8575 22.302ZM9.67336 20.305C9.46514 19.9469 9.00607 19.8254 8.64799 20.0337C8.28992 20.2419 8.16843 20.7009 8.37664 21.059L9.67336 20.305ZM9.61667 13.2595C9.0529 12.0176 7.81157 11.2234 6.44778 11.232L6.45722 12.732C7.22914 12.7271 7.93173 13.1767 8.25083 13.8796L9.61667 13.2595ZM6.46241 11.2321C4.57553 11.2072 3.02555 12.7163 3.00007 14.6031L4.49993 14.6234C4.51423 13.5647 5.38389 12.718 6.44259 12.732L6.46241 11.2321ZM3 14.6133V19.8783H4.5V14.6133H3ZM3.00009 19.8902C3.02995 21.7739 4.57863 23.2782 6.46244 23.2532L6.44256 21.7533C5.3856 21.7673 4.51665 20.9233 4.49991 19.8664L3.00009 19.8902ZM6.44659 23.2532C7.92896 23.2649 9.25284 22.3277 9.73433 20.9256L8.31566 20.4384C8.04366 21.2304 7.2958 21.7599 6.45841 21.7533L6.44659 23.2532ZM8.24854 13.8745C8.35193 14.1068 8.40524 14.3583 8.405 14.6126L9.905 14.614C9.90544 14.1491 9.80798 13.6893 9.61896 13.2646L8.24854 13.8745ZM8.405 14.6133V19.8783H9.905V14.6133H8.405ZM8.40502 19.8835C8.40637 20.0777 8.37651 20.2709 8.31659 20.4556L9.74341 20.9184C9.85289 20.5809 9.90744 20.2279 9.90498 19.8731L8.40502 19.8835ZM9.60519 13.9037C9.76624 13.5801 9.99734 13.2964 10.2817 13.0733L9.35579 11.8932C8.89616 12.2538 8.52262 12.7123 8.26231 13.2354L9.60519 13.9037ZM10.2616 13.0886C10.6204 12.8261 10.8833 12.4533 11.0101 12.0272L9.5724 11.5994C9.53912 11.7112 9.47012 11.8091 9.37594 11.8779L10.2616 13.0886ZM11.0176 12.0002L12.3688 6.75021L10.9162 6.37633L9.56492 11.6263L11.0176 12.0002ZM12.3626 6.77283C12.5786 6.03056 13.3491 5.59785 14.0954 5.79974L14.4871 4.3518C12.9519 3.93645 11.3668 4.82665 10.9224 6.35371L12.3626 6.77283ZM14.1126 5.80418C14.4643 5.89043 14.7665 6.11444 14.9513 6.42583L16.2412 5.66035C15.851 5.00266 15.2126 4.52951 14.4699 4.34736L14.1126 5.80418ZM14.9513 6.42583C15.136 6.73721 15.1879 7.10981 15.0951 7.4598L16.5449 7.84424C16.741 7.10502 16.6315 6.31804 16.2412 5.66035L14.9513 6.42583ZM15.0969 7.4528L14.3244 10.2566L15.7706 10.655L16.5431 7.85124L15.0969 7.4528ZM14.3214 10.2679C14.1798 10.8151 14.3022 11.397 14.6522 11.8408L15.8301 10.9121C15.7703 10.8363 15.7494 10.737 15.7736 10.6436L14.3214 10.2679ZM14.6522 11.8408C15.0021 12.2847 15.5394 12.5394 16.1045 12.5294L16.078 11.0296C15.9815 11.0313 15.8898 10.9879 15.8301 10.9121L14.6522 11.8408ZM16.0912 12.5295H20.5063V11.0295H16.0912V12.5295ZM20.5166 12.5294C21.1665 12.5205 21.7934 12.7702 22.2592 13.2236L23.3055 12.1488C22.5545 11.4178 21.5438 11.0152 20.4959 11.0296L20.5166 12.5294ZM22.2592 13.2236C22.725 13.677 22.9915 14.2969 23.0001 14.9469L24.4999 14.9271C24.4861 13.8792 24.0564 12.8798 23.3055 12.1488L22.2592 13.2236ZM23 14.937V19.1458H24.5V14.937H23ZM23.0001 19.1356C22.9912 19.7854 22.7246 20.4051 22.2589 20.8583L23.3049 21.9333C24.0558 21.2027 24.4857 20.2036 24.4999 19.156L23.0001 19.1356ZM22.2589 20.8583C21.7931 21.3115 21.1664 21.561 20.5166 21.5521L20.4959 23.0519C21.5436 23.0664 22.554 22.664 23.3049 21.9333L22.2589 20.8583ZM20.5063 21.552H11.8575V23.052H20.5063V21.552ZM11.8537 21.552C10.9561 21.5566 10.1246 21.081 9.67336 20.305L8.37664 21.059C9.09776 22.2992 10.4268 23.0593 11.8613 23.052L11.8537 21.552Z" fill="white"/>
</svg>
