<svg width="31" height="30" viewBox="0 0 31 30" fill="none" xmlns="http://www.w3.org/2000/svg">
<path d="M15.5 7.625C15.9142 7.625 16.25 7.28921 16.25 6.875C16.25 6.46079 15.9142 6.125 15.5 6.125V7.625ZM25 15.625C25 15.2108 24.6642 14.875 24.25 14.875C23.8358 14.875 23.5 15.2108 23.5 15.625H25ZM24.25 7.625C24.6642 7.625 25 7.28921 25 6.875C25 6.46079 24.6642 6.125 24.25 6.125V7.625ZM19.14 6.125C18.7258 6.125 18.39 6.46079 18.39 6.875C18.39 7.28921 18.7258 7.625 19.14 7.625V6.125ZM25 6.875C25 6.46079 24.6642 6.125 24.25 6.125C23.8358 6.125 23.5 6.46079 23.5 6.875H25ZM23.5 12.0512C23.5 12.4655 23.8358 12.8012 24.25 12.8012C24.6642 12.8012 25 12.4655 25 12.0512H23.5ZM24.7803 7.40533C25.0732 7.11244 25.0732 6.63756 24.7803 6.34467C24.4874 6.05178 24.0126 6.05178 23.7197 6.34467L24.7803 7.40533ZM14.9697 15.0947C14.6768 15.3876 14.6768 15.8624 14.9697 16.1553C15.2626 16.4482 15.7374 16.4482 16.0303 16.1553L14.9697 15.0947ZM15.5 6.125H11.75V7.625H15.5V6.125ZM11.75 6.125C8.57436 6.125 6 8.69936 6 11.875H7.5C7.5 9.52779 9.40279 7.625 11.75 7.625V6.125ZM6 11.875V19.375H7.5V11.875H6ZM6 19.375C6 22.5506 8.57436 25.125 11.75 25.125V23.625C9.40279 23.625 7.5 21.7222 7.5 19.375H6ZM11.75 25.125H19.25V23.625H11.75V25.125ZM19.25 25.125C22.4256 25.125 25 22.5506 25 19.375H23.5C23.5 21.7222 21.5972 23.625 19.25 23.625V25.125ZM25 19.375V15.625H23.5V19.375H25ZM24.25 6.125H19.14V7.625H24.25V6.125ZM23.5 6.875V12.0512H25V6.875H23.5ZM23.7197 6.34467L14.9697 15.0947L16.0303 16.1553L24.7803 7.40533L23.7197 6.34467Z" fill="white"/>
</svg>
