<svg xmlns="http://www.w3.org/2000/svg" width="20" height="20" viewBox="0 0 24 24" fill="none">
<g clip-path="url(#clip0_233_5147)">
<path d="M23.9995 13.9999C23.9995 9.26385 20.0235 5.29385 14.7095 4.26685C14.924 3.81055 15.0198 3.30746 14.988 2.80424C14.9562 2.30103 14.7979 1.81399 14.5276 1.38831C14.2574 0.962636 13.884 0.612104 13.4421 0.369235C13.0003 0.126365 12.5042 -0.000976563 12 -0.000976562C11.4958 -0.000976563 10.9997 0.126365 10.5579 0.369235C10.116 0.612104 9.74261 0.962636 9.47236 1.38831C9.20211 1.81399 9.04375 2.30103 9.01195 2.80424C8.98016 3.30746 9.07597 3.81055 9.2905 4.26685C3.9755 5.29385 -0.000504878 9.26385 -0.000504878 13.9999C-0.0121369 14.65 0.191657 15.2857 0.57911 15.8079C0.966562 16.3301 1.5159 16.7095 2.14149 16.8869L2.96749 21.5249C3.09078 22.2185 3.45423 22.8466 3.99415 23.2991C4.53406 23.7516 5.21602 23.9997 5.9205 23.9999H18.0795C18.784 23.9997 19.4659 23.7516 20.0058 23.2991C20.5458 22.8466 20.9092 22.2185 21.0325 21.5249L21.8575 16.8869C22.4831 16.7095 23.0324 16.3301 23.4199 15.8079C23.8073 15.2857 24.0111 14.65 23.9995 13.9999ZM10.9995 2.99985C10.9995 2.73464 11.1049 2.48028 11.2924 2.29275C11.4799 2.10521 11.7343 1.99985 11.9995 1.99985C12.2647 1.99985 12.5191 2.10521 12.7066 2.29275C12.8941 2.48028 12.9995 2.73464 12.9995 2.99985C12.9995 3.26507 12.8941 3.51943 12.7066 3.70696C12.5191 3.8945 12.2647 3.99985 11.9995 3.99985C11.7343 3.99985 11.4799 3.8945 11.2924 3.70696C11.1049 3.51943 10.9995 3.26507 10.9995 2.99985ZM18.0795 21.9999H5.9205C5.68587 21.9998 5.45875 21.9172 5.27886 21.7665C5.09898 21.6159 4.97779 21.4068 4.93649 21.1759L4.27249 17.4449C4.82727 17.8353 5.49823 18.0257 6.17538 17.9848C6.85254 17.9439 7.49572 17.6742 7.9995 17.2199C8.54851 17.7139 9.26094 17.9872 9.9995 17.9872C10.7381 17.9872 11.4505 17.7139 11.9995 17.2199C12.5485 17.7139 13.2609 17.9872 13.9995 17.9872C14.7381 17.9872 15.4505 17.7139 15.9995 17.2199C16.5039 17.6733 17.1472 17.9424 17.8242 17.9832C18.5013 18.0241 19.1722 17.8343 19.7275 17.4449L19.0635 21.1749C19.0224 21.406 18.9013 21.6153 18.7214 21.7662C18.5415 21.917 18.3143 21.9997 18.0795 21.9999V21.9999ZM20.9995 14.9999H18.9995C18.9995 15.2651 18.8941 15.5194 18.7066 15.707C18.5191 15.8945 18.2647 15.9999 17.9995 15.9999C17.7343 15.9999 17.4799 15.8945 17.2924 15.707C17.1049 15.5194 16.9995 15.2651 16.9995 14.9999H14.9995C14.9995 15.2651 14.8941 15.5194 14.7066 15.707C14.5191 15.8945 14.2647 15.9999 13.9995 15.9999C13.7343 15.9999 13.4799 15.8945 13.2924 15.707C13.1049 15.5194 12.9995 15.2651 12.9995 14.9999H10.9995C10.9995 15.2651 10.8941 15.5194 10.7066 15.707C10.5191 15.8945 10.2647 15.9999 9.9995 15.9999C9.73428 15.9999 9.47993 15.8945 9.29239 15.707C9.10485 15.5194 8.9995 15.2651 8.9995 14.9999H6.9995C6.9995 15.2651 6.89414 15.5194 6.7066 15.707C6.51907 15.8945 6.26471 15.9999 5.9995 15.9999C5.73428 15.9999 5.47992 15.8945 5.29239 15.707C5.10485 15.5194 4.9995 15.2651 4.9995 14.9999H2.9995C2.8649 15.0131 2.72905 14.9963 2.60172 14.9507C2.47439 14.9051 2.35875 14.8319 2.26312 14.7362C2.16749 14.6406 2.09424 14.525 2.04866 14.3976C2.00308 14.2703 1.98628 14.1345 1.9995 13.9999C2.5055 3.39985 21.4915 3.40885 21.9995 13.9879C22.0141 14.1233 21.9983 14.2602 21.9534 14.3888C21.9084 14.5174 21.8355 14.6344 21.7397 14.7313C21.644 14.8281 21.5279 14.9025 21.3999 14.949C21.2718 14.9954 21.1351 15.0128 20.9995 14.9999Z" fill="white"/>
</g>
<defs>
<clipPath id="clip0_233_5147">
<rect width="24" height="24" fill="white"/>
</clipPath>
</defs>
</svg>