<svg width="29" height="28" viewBox="0 0 29 28" fill="none" xmlns="http://www.w3.org/2000/svg">
<path fill-rule="evenodd" clip-rule="evenodd" d="M6.20074 2.51851C5.16351 3.21876 4.22557 4.04669 3.41136 4.97868C6.73861 4.68043 10.9658 5.16743 15.8734 7.53668C21.1142 10.0666 25.3343 10.1522 28.2712 9.60518C28.0047 8.82615 27.6692 8.07743 27.2718 7.36567C23.9098 7.70804 19.5996 7.25486 14.5765 4.82999C11.3868 3.29012 8.57513 2.65581 6.20074 2.51851ZM25.3079 4.66665C22.6528 1.8025 18.7945 0 14.5 0C13.2388 0 12.0152 0.155475 10.8487 0.447636C12.4286 0.86386 14.107 1.47279 15.8734 2.32559C19.5511 4.10097 22.7261 4.67261 25.3079 4.66665ZM28.8992 12.3397C25.351 13.0161 20.4514 12.8772 14.5765 10.0411C9.08423 7.38961 4.71282 7.423 1.76458 8.05559C1.6124 8.08821 1.46381 8.12251 1.3188 8.15821C0.9328 8.96874 0.624685 9.82106 0.403609 10.7061C0.63973 10.6452 0.883725 10.5873 1.13547 10.5333C4.71219 9.7659 9.7658 9.79922 15.8734 12.7478C21.3658 15.3992 25.7372 15.3658 28.6855 14.7332C28.7865 14.7116 28.886 14.6892 28.9839 14.6661C28.9946 14.4454 29 14.2233 29 14C29 13.4382 28.9658 12.8842 28.8992 12.3397ZM28.5105 17.6206C24.9968 18.2137 20.2398 17.9861 14.5765 15.2522C9.08423 12.6007 4.71282 12.6341 1.76458 13.2667C1.11016 13.407 0.521449 13.578 0.00212425 13.7586C0.000708326 13.8389 0 13.9194 0 14C0 21.732 6.49187 28 14.5 28C21.2114 28 26.8578 23.5976 28.5105 17.6206Z" fill="#4992E6"/>
</svg>
