<svg width="24" height="24" viewBox="0 0 24 24" fill="none" xmlns="http://www.w3.org/2000/svg">
<path d="M4.3335 5.24995V20.4371C4.33343 20.5348 4.35785 20.6308 4.40437 20.7157C4.45089 20.8006 4.5179 20.8714 4.5988 20.9213C4.67969 20.9711 4.77169 20.9982 4.86574 20.9999C4.95979 21.0016 5.05264 20.9779 5.13516 20.931L10.8335 17.7023L16.5318 20.931C16.6143 20.9779 16.7072 21.0016 16.8012 20.9999C16.8953 20.9982 16.9873 20.9711 17.0682 20.9213C17.1491 20.8714 17.2161 20.8006 17.2626 20.7157C17.3091 20.6308 17.3336 20.5348 17.3335 20.4371V5.24995C17.3335 4.65323 17.1052 4.08094 16.6989 3.65899C16.2926 3.23705 15.7415 3 15.1668 3H6.50016C5.92553 3 5.37443 3.23705 4.9681 3.65899C4.56177 4.08094 4.3335 4.65323 4.3335 5.24995Z" fill="white"/>
</svg>
