<svg width="24" height="24" viewBox="0 0 24 24" fill="none" xmlns="http://www.w3.org/2000/svg">
<path fill-rule="evenodd" clip-rule="evenodd" d="M10.5081 2.4402C10.8408 2.52854 11.1195 2.75548 11.2734 3.06334C11.8537 4.22389 12.2868 4.92826 12.7225 5.49935C13.1635 6.07743 13.63 6.55066 14.3397 7.26033C15.9797 8.9003 16.8 11.0521 16.8 13.2C16.8 15.3479 15.9797 17.4998 14.3397 19.1397C11.0593 22.4201 5.74071 22.4201 2.4603 19.1397C0.820338 17.4998 2.82369e-06 15.3479 0 13.2C-3.54892e-06 11.0521 0.820333 8.9003 2.4603 7.26033C2.8035 6.91713 3.31964 6.81446 3.76805 7.0002C4.21646 7.18594 4.50883 7.6235 4.50883 8.10886C4.50883 9.45263 4.59274 10.4765 4.98577 11.2932C5.20189 11.7423 5.53902 12.1814 6.12005 12.5732C6.25882 11.3002 6.51302 9.74937 6.8565 8.27732C7.12693 7.11834 7.46327 5.96127 7.8636 4.99639C8.06383 4.51377 8.29026 4.05424 8.54742 3.65748C8.79774 3.27128 9.11934 2.87829 9.53447 2.60154C9.82086 2.41061 10.1754 2.35186 10.5081 2.4402ZM10.9456 18.1456C9.5397 19.5515 7.2603 19.5515 5.85441 18.1456C5.15147 17.4426 4.8 16.5213 4.8 15.6C4.8 15.6 5.85441 16.2 7.80005 16.2C7.80005 15 8.40005 11.4 9.30005 10.8C9.90005 12 10.2426 12.3515 10.9456 13.0544C11.6485 13.7574 12 14.6787 12 15.6C12 16.5213 11.6485 17.4426 10.9456 18.1456Z" fill="white"/>
</svg>
