<svg width="24" height="24" viewBox="0 0 24 24" fill="none" xmlns="http://www.w3.org/2000/svg">
<path d="M1.40002 12.6C1.40002 11.6059 2.20591 10.8 3.20002 10.8C4.19414 10.8 5.00002 11.6059 5.00002 12.6V19.8C5.00002 20.7941 4.19414 21.6 3.20002 21.6C2.20591 21.6 1.40002 20.7941 1.40002 19.8V12.6Z" fill="white"/>
<path d="M6.20002 12.4V18.9167C6.20002 19.8258 6.71363 20.6568 7.52671 21.0633L7.58653 21.0933C8.25303 21.4265 8.98797 21.6 9.73315 21.6H16.2325C17.3765 21.6 18.3615 20.7925 18.5859 19.6707L20.0259 12.4707C20.3229 10.9856 19.187 9.6 17.6725 9.6H13.4V4.8C13.4 3.47452 12.3255 2.4 11 2.4C10.3373 2.4 9.80002 2.93726 9.80002 3.6V4.4C9.80002 5.43858 9.46317 6.44914 8.84002 7.28L7.16002 9.52C6.53688 10.3509 6.20002 11.3614 6.20002 12.4Z" fill="white"/>
</svg>
