<svg width="18" height="18" viewBox="0 0 18 18" fill="none" xmlns="http://www.w3.org/2000/svg">
<path d="M2.79666 0.5625C2.79666 0.413316 2.85609 0.270242 2.96188 0.164752C3.06767 0.0592632 3.21115 0 3.36075 0H14.6426C14.7922 0 14.9357 0.0592632 15.0415 0.164752C15.1473 0.270242 15.2067 0.413316 15.2067 0.5625C15.2067 1.16775 15.1939 1.74375 15.1684 2.2905C15.6141 2.36411 16.0406 2.52598 16.4227 2.76658C16.8047 3.00717 17.1346 3.32161 17.3928 3.69136C17.6511 4.06111 17.8324 4.47867 17.9262 4.91943C18.0201 5.36019 18.0244 5.81522 17.9391 6.25769C17.8537 6.70015 17.6804 7.1211 17.4293 7.49569C17.1782 7.87029 16.8544 8.19096 16.477 8.43879C16.0997 8.68662 15.6763 8.85659 15.2321 8.93867C14.7878 9.02076 14.3315 9.01331 13.8901 8.91675C12.9989 11.0149 11.7714 12.0409 10.694 12.3041V14.7487L12.3016 15.1493C12.5205 15.2032 12.727 15.3011 12.9075 15.4361L14.9811 16.9875C15.0758 17.0583 15.1458 17.1571 15.1811 17.2698C15.2164 17.3825 15.2152 17.5034 15.1778 17.6154C15.1403 17.7274 15.0685 17.8248 14.9725 17.8938C14.8764 17.9629 14.761 18 14.6426 18H3.36075C3.24236 18 3.12697 17.9629 3.03092 17.8938C2.93488 17.8248 2.86305 17.7274 2.82561 17.6154C2.78817 17.5034 2.78702 17.3825 2.82232 17.2698C2.85762 17.1571 2.92758 17.0583 3.0223 16.9875L5.09591 15.4361C5.27642 15.3011 5.48287 15.2032 5.70174 15.1493L7.30941 14.7487V12.3041C6.23199 12.0409 5.00452 11.0149 4.11325 8.91563C3.67167 9.01271 3.21505 9.02057 2.77036 8.93874C2.32568 8.85691 1.90195 8.68705 1.52419 8.4392C1.14644 8.19135 0.822317 7.87053 0.570977 7.49568C0.319638 7.12084 0.146173 6.69957 0.0608279 6.25676C-0.0245171 5.81395 -0.020012 5.35857 0.0740771 4.91753C0.168166 4.47648 0.349932 4.05871 0.608639 3.68888C0.867345 3.31905 1.19775 3.00467 1.58033 2.7643C1.96292 2.52393 2.38993 2.36244 2.83615 2.28938C2.80955 1.71413 2.79639 1.13835 2.79666 0.5625ZM2.90835 3.42C2.31965 3.52741 1.79784 3.86363 1.45774 4.35468C1.11763 4.84573 0.987071 5.4514 1.09479 6.03844C1.2025 6.62548 1.53967 7.1458 2.03212 7.48495C2.52456 7.8241 3.13194 7.95429 3.72064 7.84687C3.34496 6.66562 3.05727 5.20762 2.90835 3.42ZM14.2839 7.84687C14.8726 7.95429 15.4799 7.8241 15.9724 7.48495C16.4648 7.1458 16.802 6.62548 16.9097 6.03844C17.0174 5.4514 16.8869 4.84573 16.5468 4.35468C16.2067 3.86363 15.6849 3.52741 15.0962 3.42C14.9461 5.20875 14.6584 6.66562 14.2839 7.84687Z" fill="white"/>
</svg>
