<svg width="17" height="17" viewBox="0 0 17 17" fill="none" xmlns="http://www.w3.org/2000/svg">
<g clip-path="url(#clip0_23_5939)">
<path d="M16.2917 15.5833H3.54167C2.97808 15.5833 2.43758 15.3594 2.03906 14.9609C1.64055 14.5624 1.41667 14.0219 1.41667 13.4583V0.708333C1.41667 0.520472 1.34204 0.340304 1.2092 0.207466C1.07636 0.0746278 0.896195 0 0.708333 0C0.520472 0 0.340304 0.0746278 0.207466 0.207466C0.0746278 0.340304 0 0.520472 0 0.708333L0 13.4583C0.00112473 14.3973 0.374625 15.2975 1.03857 15.9614C1.70252 16.6254 2.6027 16.9989 3.54167 17H16.2917C16.4795 17 16.6597 16.9254 16.7925 16.7925C16.9254 16.6597 17 16.4795 17 16.2917C17 16.1038 16.9254 15.9236 16.7925 15.7908C16.6597 15.658 16.4795 15.5833 16.2917 15.5833Z" fill="white" stroke="white" stroke-width="0.5" stroke-linejoin="round"/>
<path d="M4.25008 14.1666C4.43794 14.1666 4.61811 14.092 4.75095 13.9592C4.88378 13.8263 4.95841 13.6461 4.95841 13.4583V8.49995C4.95841 8.31209 4.88378 8.13192 4.75095 7.99908C4.61811 7.86625 4.43794 7.79162 4.25008 7.79162C4.06222 7.79162 3.88205 7.86625 3.74921 7.99908C3.61638 8.13192 3.54175 8.31209 3.54175 8.49995V13.4583C3.54175 13.6461 3.61638 13.8263 3.74921 13.9592C3.88205 14.092 4.06222 14.1666 4.25008 14.1666Z" fill="white" stroke="white" stroke-width="0.5" stroke-linejoin="round"/>
<path d="M7.08325 7.08333V13.4583C7.08325 13.6462 7.15788 13.8264 7.29072 13.9592C7.42356 14.092 7.60373 14.1667 7.79159 14.1667C7.97945 14.1667 8.15962 14.092 8.29246 13.9592C8.4253 13.8264 8.49993 13.6462 8.49993 13.4583V7.08333C8.49993 6.89547 8.4253 6.7153 8.29246 6.58247C8.15962 6.44963 7.97945 6.375 7.79159 6.375C7.60373 6.375 7.42356 6.44963 7.29072 6.58247C7.15788 6.7153 7.08325 6.89547 7.08325 7.08333Z" fill="white" stroke="white" stroke-width="0.5" stroke-linejoin="round"/>
<path d="M10.625 9.20833V13.4583C10.625 13.6462 10.6996 13.8264 10.8325 13.9592C10.9653 14.092 11.1455 14.1667 11.3333 14.1667C11.5212 14.1667 11.7014 14.092 11.8342 13.9592C11.967 13.8264 12.0417 13.6462 12.0417 13.4583V9.20833C12.0417 9.02047 11.967 8.8403 11.8342 8.70747C11.7014 8.57463 11.5212 8.5 11.3333 8.5C11.1455 8.5 10.9653 8.57463 10.8325 8.70747C10.6996 8.8403 10.625 9.02047 10.625 9.20833Z" fill="white" stroke="white" stroke-width="0.5" stroke-linejoin="round"/>
<path d="M14.1667 6.37494V13.4583C14.1667 13.6461 14.2414 13.8263 14.3742 13.9591C14.5071 14.092 14.6872 14.1666 14.8751 14.1666C15.0629 14.1666 15.2431 14.092 15.376 13.9591C15.5088 13.8263 15.5834 13.6461 15.5834 13.4583V6.37494C15.5834 6.18707 15.5088 6.00691 15.376 5.87407C15.2431 5.74123 15.0629 5.6666 14.8751 5.6666C14.6872 5.6666 14.5071 5.74123 14.3742 5.87407C14.2414 6.00691 14.1667 6.18707 14.1667 6.37494Z" fill="white" stroke="white" stroke-width="0.5" stroke-linejoin="round"/>
<path d="M4.24993 6.37496C4.43778 6.37491 4.61791 6.30026 4.75072 6.16741L7.29081 3.62733C7.42581 3.49871 7.60513 3.42697 7.7916 3.42697C7.97806 3.42697 8.15738 3.49871 8.29239 3.62733L9.83089 5.16583C10.2294 5.56421 10.7698 5.788 11.3333 5.788C11.8967 5.788 12.4371 5.56421 12.8356 5.16583L16.7924 1.20908C16.9214 1.07549 16.9928 0.89656 16.9912 0.710838C16.9896 0.525115 16.9151 0.347456 16.7838 0.216125C16.6524 0.0847947 16.4748 0.0103 16.289 0.00868614C16.1033 0.00707226 15.9244 0.0784683 15.7908 0.207497L11.8341 4.16354C11.7012 4.29633 11.5211 4.37093 11.3333 4.37093C11.1454 4.37093 10.9653 4.29633 10.8325 4.16354L9.29397 2.62575C8.89548 2.22737 8.35507 2.00358 7.7916 2.00358C7.22812 2.00358 6.68772 2.22737 6.28922 2.62575L3.74914 5.16583C3.65011 5.26489 3.58267 5.39109 3.55535 5.52847C3.52803 5.66586 3.54206 5.80826 3.59566 5.93767C3.64926 6.06708 3.74002 6.1777 3.85648 6.25553C3.97294 6.33337 4.10986 6.37493 4.24993 6.37496V6.37496Z" fill="white" stroke="white" stroke-width="0.5" stroke-linejoin="round"/>
</g>
<defs>
<clipPath id="clip0_23_5939">
<rect width="17" height="17" fill="white"/>
</clipPath>
</defs>
</svg>
