<svg xmlns="http://www.w3.org/2000/svg" width="14" height="15" viewBox="0 0 14 15" fill="none">
<path fill-rule="evenodd" clip-rule="evenodd" d="M1 7.49985C1.00021 4.63757 3.02228 2.17401 5.8296 1.6158C8.63693 1.05758 11.4476 2.56017 12.5428 5.20464C13.638 7.84912 12.7127 10.899 10.3327 12.489C7.95267 14.0791 4.78089 13.7665 2.75705 11.7425C1.63192 10.6172 0.999885 9.09111 1 7.49985Z" stroke="#1E1E1E" stroke-width="1.3" stroke-linecap="round" stroke-linejoin="round"/>
<path d="M4.29047 9.28893C4.03658 9.54272 4.0365 9.95428 4.29029 10.2082C4.54409 10.4621 4.95564 10.4621 5.20953 10.2083L4.29047 9.28893ZM7.45942 7.95932C7.71331 7.70552 7.71338 7.29397 7.45959 7.04008C7.2058 6.78619 6.79424 6.78611 6.54035 7.0399L7.45942 7.95932ZM6.53962 7.04032C6.28588 7.29426 6.28603 7.70582 6.53997 7.95956C6.79391 8.2133 7.20546 8.21315 7.45921 7.95921L6.53962 7.04032ZM9.70824 5.70847C9.96198 5.45453 9.96182 5.04297 9.70789 4.78923C9.45395 4.53548 9.04239 4.53564 8.78865 4.78958L9.70824 5.70847ZM7.45895 7.0399C7.20506 6.78611 6.7935 6.78619 6.53971 7.04008C6.28591 7.29397 6.28599 7.70552 6.53988 7.95932L7.45895 7.0399ZM8.78977 10.2083C9.04366 10.4621 9.45521 10.4621 9.70901 10.2082C9.9628 9.95428 9.96272 9.54272 9.70883 9.28893L8.78977 10.2083ZM6.54018 7.95949C6.79397 8.21338 7.20553 8.21346 7.45942 7.95967C7.71331 7.70587 7.71338 7.29432 7.45959 7.04043L6.54018 7.95949ZM5.20971 4.78969C4.95591 4.5358 4.54436 4.53572 4.29047 4.78951C4.03658 5.0433 4.0365 5.45486 4.29029 5.70875L5.20971 4.78969ZM5.20953 10.2083L7.45942 7.95932L6.54035 7.0399L4.29047 9.28893L5.20953 10.2083ZM7.45921 7.95921L9.70824 5.70847L8.78865 4.78958L6.53962 7.04032L7.45921 7.95921ZM6.53988 7.95932L8.78977 10.2083L9.70883 9.28893L7.45895 7.0399L6.53988 7.95932ZM7.45959 7.04043L5.20971 4.78969L4.29029 5.70875L6.54018 7.95949L7.45959 7.04043Z" fill="#1E1E1E"/>
</svg>