<svg width="167" height="41" viewBox="0 0 167 41" fill="none" xmlns="http://www.w3.org/2000/svg">
<path fill-rule="evenodd" clip-rule="evenodd" d="M5.13164 11.1587C4.27325 11.7589 3.49703 12.4686 2.82319 13.2674C5.57678 13.0118 9.07511 13.4292 13.1366 15.46C17.4738 17.6285 20.9663 17.7019 23.3969 17.233C23.1763 16.5653 22.8986 15.9235 22.5698 15.3134C19.7874 15.6069 16.2204 15.2184 12.0633 13.14C9.42359 11.8201 7.09666 11.2764 5.13164 11.1587ZM20.9444 13C18.7472 10.545 15.554 9 12 9C10.9563 9 9.94361 9.13326 8.9782 9.38369C10.2857 9.74045 11.6747 10.2624 13.1366 10.9934C16.1802 12.5151 18.8078 13.0051 20.9444 13ZM23.9165 19.5769C20.9801 20.1567 16.9253 20.0376 12.0633 17.6066C7.51798 15.3339 3.90026 15.3626 1.46034 15.9048C1.3344 15.9327 1.21143 15.9621 1.09142 15.9927C0.771973 16.6875 0.516981 17.4181 0.334022 18.1767C0.529432 18.1245 0.731359 18.0749 0.939697 18.0286C3.89975 17.3708 8.08204 17.3993 13.1366 19.9267C17.6821 22.1993 21.2998 22.1707 23.7397 21.6285C23.8233 21.61 23.9057 21.5908 23.9867 21.571C23.9956 21.3818 24 21.1914 24 21C24 20.5185 23.9717 20.0436 23.9165 19.5769ZM23.5949 24.1034C20.687 24.6118 16.7502 24.4166 12.0633 22.0733C7.51798 19.8006 3.90026 19.8292 1.46034 20.3714C0.918751 20.4917 0.431544 20.6383 0.001758 20.7931C0.000586201 20.8619 0 20.9309 0 21C0 27.6274 5.37258 33 12 33C17.5543 33 22.2272 29.2265 23.5949 24.1034Z" fill="white"/>
<path d="M34.1914 13.8594H37.8242L41.75 23.4492H41.9062L45.832 13.8594H49.4648V28H46.6133V18.7422H46.4961L42.8047 27.9414H40.8516L37.1602 18.7031H37.043V28H34.1914V13.8594ZM56.5938 28.2148C53.3516 28.2148 51.3594 26.1055 51.3594 22.7461C51.3594 19.4648 53.3711 17.2578 56.4766 17.2578C59.2695 17.2578 61.457 19.0156 61.457 22.6289V23.4492H54.2109C54.2109 25.0508 55.168 26.0469 56.6523 26.0469C57.6289 26.0469 58.332 25.6172 58.625 24.9727H61.3789C60.9688 26.9258 59.2109 28.2148 56.5938 28.2148ZM54.2109 21.6328H58.7227C58.7227 20.3438 57.8242 19.4258 56.5352 19.4258C55.207 19.4258 54.2598 20.4121 54.2109 21.6328ZM67.1797 28.1758C64.7578 28.1758 62.8633 26.2422 62.8633 22.707C62.8633 19.0742 64.8359 17.2578 67.1797 17.2578C68.957 17.2578 69.7969 18.3125 70.1875 19.1719H70.2852V13.8594H73.1758V28H70.3242V26.3008H70.1875C69.7773 27.1797 68.8984 28.1758 67.1797 28.1758ZM68.0781 25.8711C69.5234 25.8711 70.3438 24.6016 70.3438 22.6875C70.3438 20.7734 69.5234 19.5625 68.0781 19.5625C66.6133 19.5625 65.832 20.832 65.832 22.6875C65.832 24.5625 66.6133 25.8711 68.0781 25.8711ZM75.5 28V17.3945H78.3906V28H75.5ZM76.9453 16.0078C76.0664 16.0078 75.3633 15.3438 75.3633 14.543C75.3633 13.7227 76.0664 13.0586 76.9453 13.0586C77.8047 13.0586 78.5078 13.7227 78.5078 14.543C78.5078 15.3438 77.8047 16.0078 76.9453 16.0078ZM80.1289 25.0312C80.1289 22.668 82.043 21.8867 84.0742 21.7695C84.8359 21.7207 86.2617 21.6523 86.7109 21.6328V20.7734C86.6914 19.8945 86.0859 19.3672 85.0117 19.3672C84.0352 19.3672 83.4102 19.8164 83.2539 20.5391H80.5C80.6758 18.7031 82.2773 17.2578 85.0898 17.2578C87.3945 17.2578 89.582 18.293 89.582 20.8516V28H86.8477V26.5352H86.7695C86.2422 27.5117 85.2461 28.1953 83.6641 28.1953C81.6328 28.1953 80.1289 27.1406 80.1289 25.0312ZM82.9023 24.9531C82.9023 25.7734 83.5664 26.2031 84.4844 26.2031C85.793 26.2031 86.7305 25.3242 86.7109 24.2109V23.4297C86.2715 23.4492 85.041 23.5176 84.543 23.5664C83.5469 23.6641 82.9023 24.1328 82.9023 24.9531ZM94.0156 28L89.9727 13.8594H93.1758L95.5586 23.7422H95.6758L98.2734 13.8594H101.027L103.625 23.7617H103.742L106.125 13.8594H109.328L105.285 28H102.414L99.7188 18.6641H99.6016L96.8867 28H94.0156ZM109.113 25.0312C109.113 22.668 111.027 21.8867 113.059 21.7695C113.82 21.7207 115.246 21.6523 115.695 21.6328V20.7734C115.676 19.8945 115.07 19.3672 113.996 19.3672C113.02 19.3672 112.395 19.8164 112.238 20.5391H109.484C109.66 18.7031 111.262 17.2578 114.074 17.2578C116.379 17.2578 118.566 18.293 118.566 20.8516V28H115.832V26.5352H115.754C115.227 27.5117 114.23 28.1953 112.648 28.1953C110.617 28.1953 109.113 27.1406 109.113 25.0312ZM111.887 24.9531C111.887 25.7734 112.551 26.2031 113.469 26.2031C114.777 26.2031 115.715 25.3242 115.695 24.2109V23.4297C115.256 23.4492 114.025 23.5176 113.527 23.5664C112.531 23.6641 111.887 24.1328 111.887 24.9531ZM130.227 17.3945L126.496 28H123.254L119.543 17.3945H122.59L124.816 25.0117H124.934L127.16 17.3945H130.227ZM136.086 28.2148C132.844 28.2148 130.852 26.1055 130.852 22.7461C130.852 19.4648 132.863 17.2578 135.969 17.2578C138.762 17.2578 140.949 19.0156 140.949 22.6289V23.4492H133.703C133.703 25.0508 134.66 26.0469 136.145 26.0469C137.121 26.0469 137.824 25.6172 138.117 24.9727H140.871C140.461 26.9258 138.703 28.2148 136.086 28.2148ZM133.703 21.6328H138.215C138.215 20.3438 137.316 19.4258 136.027 19.4258C134.699 19.4258 133.752 20.4121 133.703 21.6328Z" fill="white"/>
</svg>
