<svg width="173" height="30" viewBox="0 0 173 30" fill="none" xmlns="http://www.w3.org/2000/svg">
<path fill-rule="evenodd" clip-rule="evenodd" d="M6.20074 4.51851C5.16351 5.21876 4.22557 6.04669 3.41136 6.97868C6.73861 6.68043 10.9658 7.16744 15.8734 9.53668C21.1142 12.0666 25.3343 12.1522 28.2712 11.6052C28.0047 10.8261 27.6692 10.0774 27.2718 9.36567C23.9098 9.70804 19.5996 9.25486 14.5765 6.82999C11.3868 5.29012 8.57513 4.65581 6.20074 4.51851ZM25.3079 6.66665C22.6528 3.8025 18.7945 2 14.5 2C13.2388 2 12.0152 2.15548 10.8487 2.44764C12.4286 2.86386 14.107 3.47279 15.8734 4.32559C19.5511 6.10097 22.7261 6.67261 25.3079 6.66665ZM28.8992 14.3397C25.351 15.0161 20.4514 14.8772 14.5765 12.0411C9.08423 9.38961 4.71282 9.423 1.76458 10.0556C1.6124 10.0882 1.46381 10.1225 1.3188 10.1582C0.9328 10.9687 0.624685 11.8211 0.403609 12.7061C0.63973 12.6452 0.883725 12.5873 1.13547 12.5333C4.71219 11.7659 9.7658 11.7992 15.8734 14.7478C21.3658 17.3992 25.7372 17.3658 28.6855 16.7332C28.7865 16.7116 28.886 16.6892 28.9839 16.6661C28.9946 16.4454 29 16.2233 29 16C29 15.4382 28.9658 14.8842 28.8992 14.3397ZM28.5105 19.6206C24.9968 20.2137 20.2398 19.9861 14.5765 17.2522C9.08423 14.6007 4.71282 14.6341 1.76458 15.2667C1.11016 15.407 0.521449 15.578 0.00212425 15.7586C0.000708326 15.8389 0 15.9194 0 16C0 23.732 6.49187 30 14.5 30C21.2114 30 26.8578 25.5976 28.5105 19.6206Z" fill="white"/>
<path d="M43.012 6.03125H47.3713L52.0823 17.5391H52.2698L56.9807 6.03125H61.3401V23H57.9182V11.8906H57.7776L53.3479 22.9297H51.0042L46.5745 11.8438H46.4338V23H43.012V6.03125ZM69.8948 23.2578C66.0042 23.2578 63.6135 20.7266 63.6135 16.6953C63.6135 12.7578 66.0276 10.1094 69.7542 10.1094C73.1057 10.1094 75.7307 12.2188 75.7307 16.5547V17.5391H67.0354C67.0354 19.4609 68.1838 20.6562 69.9651 20.6562C71.137 20.6562 71.9807 20.1406 72.3323 19.3672H75.637C75.1448 21.7109 73.0354 23.2578 69.8948 23.2578ZM67.0354 15.3594H72.4495C72.4495 13.8125 71.3713 12.7109 69.8245 12.7109C68.2307 12.7109 67.094 13.8945 67.0354 15.3594ZM82.5979 23.2109C79.6917 23.2109 77.4182 20.8906 77.4182 16.6484C77.4182 12.2891 79.7854 10.1094 82.5979 10.1094C84.7307 10.1094 85.7385 11.375 86.2073 12.4062H86.3245V6.03125H89.7932V23H86.3713V20.9609H86.2073C85.7151 22.0156 84.6604 23.2109 82.5979 23.2109ZM83.676 20.4453C85.4104 20.4453 86.3948 18.9219 86.3948 16.625C86.3948 14.3281 85.4104 12.875 83.676 12.875C81.9182 12.875 80.9807 14.3984 80.9807 16.625C80.9807 18.875 81.9182 20.4453 83.676 20.4453ZM92.5823 23V10.2734H96.051V23H92.5823ZM94.3167 8.60938C93.262 8.60938 92.4182 7.8125 92.4182 6.85156C92.4182 5.86719 93.262 5.07031 94.3167 5.07031C95.3479 5.07031 96.1917 5.86719 96.1917 6.85156C96.1917 7.8125 95.3479 8.60938 94.3167 8.60938ZM98.137 19.4375C98.137 16.6016 100.434 15.6641 102.871 15.5234C103.785 15.4648 105.496 15.3828 106.035 15.3594V14.3281C106.012 13.2734 105.285 12.6406 103.996 12.6406C102.824 12.6406 102.074 13.1797 101.887 14.0469H98.5823C98.7932 11.8438 100.715 10.1094 104.09 10.1094C106.856 10.1094 109.481 11.3516 109.481 14.4219V23H106.199V21.2422H106.106C105.473 22.4141 104.278 23.2344 102.379 23.2344C99.9417 23.2344 98.137 21.9688 98.137 19.4375ZM101.465 19.3438C101.465 20.3281 102.262 20.8438 103.364 20.8438C104.934 20.8438 106.059 19.7891 106.035 18.4531V17.5156C105.508 17.5391 104.031 17.6211 103.434 17.6797C102.239 17.7969 101.465 18.3594 101.465 19.3438ZM114.801 23L109.949 6.03125H113.793L116.653 17.8906H116.793L119.91 6.03125H123.215L126.332 17.9141H126.473L129.332 6.03125H133.176L128.324 23H124.879L121.645 11.7969H121.504L118.246 23H114.801ZM132.918 19.4375C132.918 16.6016 135.215 15.6641 137.653 15.5234C138.567 15.4648 140.278 15.3828 140.817 15.3594V14.3281C140.793 13.2734 140.067 12.6406 138.778 12.6406C137.606 12.6406 136.856 13.1797 136.668 14.0469H133.364C133.574 11.8438 135.496 10.1094 138.871 10.1094C141.637 10.1094 144.262 11.3516 144.262 14.4219V23H140.981V21.2422H140.887C140.254 22.4141 139.059 23.2344 137.16 23.2344C134.723 23.2344 132.918 21.9688 132.918 19.4375ZM136.246 19.3438C136.246 20.3281 137.043 20.8438 138.145 20.8438C139.715 20.8438 140.84 19.7891 140.817 18.4531V17.5156C140.289 17.5391 138.813 17.6211 138.215 17.6797C137.02 17.7969 136.246 18.3594 136.246 19.3438ZM158.254 10.2734L153.778 23H149.887L145.434 10.2734H149.09L151.762 19.4141H151.903L154.574 10.2734H158.254ZM165.285 23.2578C161.395 23.2578 159.004 20.7266 159.004 16.6953C159.004 12.7578 161.418 10.1094 165.145 10.1094C168.496 10.1094 171.121 12.2188 171.121 16.5547V17.5391H162.426C162.426 19.4609 163.574 20.6562 165.356 20.6562C166.528 20.6562 167.371 20.1406 167.723 19.3672H171.028C170.535 21.7109 168.426 23.2578 165.285 23.2578ZM162.426 15.3594H167.84C167.84 13.8125 166.762 12.7109 165.215 12.7109C163.621 12.7109 162.485 13.8945 162.426 15.3594Z" fill="white"/>
</svg>
